<svg width="22" height="18" viewBox="0 0 22 18" fill="none" xmlns="http://www.w3.org/2000/svg">
<path d="M15.9421 10.4433C15.9701 10.5797 16.3988 15.0141 16.2433 15.8713C16.019 17.1135 14.4698 18 11.1518 18C7.95591 18 6.32358 16.9322 6.01068 15.6598C5.71135 14.4504 6.30369 10.3648 6.33263 10.2318C7.05519 6.84366 9.96082 6.66497 10.9646 6.65807H11.2766C12.2144 6.65807 15.2015 6.9835 15.9421 10.4433ZM4.04827 7.54546C4.34309 7.54546 4.86217 7.56014 5.42105 7.74401C5.04576 8.3638 4.76451 9.07424 4.59268 9.87704C4.58454 9.91588 3.8656 14.377 4.28159 16.0664C4.2843 16.0767 4.29154 16.0836 4.29425 16.094C4.03471 16.0741 3.76521 16.037 3.48397 15.9688C0.987092 15.3715 0.0393473 14.1923 0.00588681 13.5414C-0.044756 12.5401 0.247345 10.5279 0.270858 10.42C0.864103 7.6361 3.09148 7.54546 3.8457 7.54546H4.04827ZM18.2129 7.54546C19.015 7.55064 21.1493 7.70343 21.729 10.42C21.7525 10.5279 22.0455 12.5401 21.9939 13.5414C21.9623 14.1923 21.0136 15.3715 18.5168 15.9697C18.3422 16.0103 18.1731 16.0422 18.0076 16.0646C18.1849 14.7215 17.7164 10.2594 17.6802 10.0894C17.4804 9.15193 17.1385 8.36294 16.7018 7.70602C17.2127 7.55927 17.6793 7.54546 17.9524 7.54546H18.2129ZM18.0266 2.19001C19.3225 2.19001 20.3743 3.21725 20.3743 4.48533C20.3743 5.75254 19.3225 6.78064 18.0266 6.78064C16.7298 6.78064 15.6762 5.75254 15.6762 4.48533C15.6762 3.21725 16.7298 2.19001 18.0266 2.19001ZM3.97412 2.19001C5.27184 2.19001 6.32358 3.21725 6.32358 4.48533C6.32358 5.75254 5.27184 6.78064 3.97412 6.78064C2.6782 6.78064 1.62736 5.75254 1.62736 4.48533C1.62736 3.21725 2.6782 2.19001 3.97412 2.19001ZM11.1871 0C12.7995 0 14.1072 1.27671 14.1072 2.8521C14.1072 4.42835 12.7995 5.70593 11.1871 5.70593C9.57287 5.70593 8.26519 4.42835 8.26519 2.8521C8.26519 1.27671 9.57287 0 11.1871 0Z" fill="white"/>
</svg>
